HIERARCHY
ROOT root
{
	OFFSET 0.000000 0.000000 0.000000
	CHANNELS 6 Xposition Yposition Zposition Zrotation Yrotation Xrotation
	JOINT lhip
	{
		OFFSET 0.058581 -0.082280 -0.017664
		CHANNELS 3 Zrotation Yrotation Xrotation
		JOINT lknee
		{
			OFFSET 0.043451 -0.386469 0.008037
			CHANNELS 3 Zrotation Yrotation Xrotation
			JOINT lankle
			{
				OFFSET -0.014790 -0.426874 -0.037428
				CHANNELS 3 Zrotation Yrotation Xrotation
				JOINT ltoe
				{
					OFFSET 0.041054 -0.060286 0.122042
					CHANNELS 3 Zrotation Yrotation Xrotation
					End Site
					{
						OFFSET 0.000000 0.000000 0.000000
					}
				}
			}
		}
	}
	JOINT rhip
	{
		OFFSET -0.060310 -0.090513 -0.013543
		CHANNELS 3 Zrotation Yrotation Xrotation
		JOINT rknee
		{
			OFFSET -0.043257 -0.383688 -0.004843
			CHANNELS 3 Zrotation Yrotation Xrotation
			JOINT rankle
			{
				OFFSET 0.019056 -0.420046 -0.034562
				CHANNELS 3 Zrotation Yrotation Xrotation
				JOINT rtoe
				{
					OFFSET -0.034840 -0.062106 0.130323
					CHANNELS 3 Zrotation Yrotation Xrotation
					End Site
					{
						OFFSET 0.000000 0.000000 0.000000
					}
				}
			}
		}
	}
	JOINT lowerback
	{
		OFFSET 0.004439 0.124404 -0.038385
		CHANNELS 3 Zrotation Yrotation Xrotation
		JOINT upperback
		{
			OFFSET 0.004488 0.137956 0.026820
			CHANNELS 3 Zrotation Yrotation Xrotation
			JOINT chest
			{
				OFFSET -0.002265 0.056032 0.002855
				CHANNELS 3 Zrotation Yrotation Xrotation
				JOINT lowerneck
				{
					OFFSET -0.013390 0.211636 -0.033468
					CHANNELS 3 Zrotation Yrotation Xrotation
					JOINT upperneck
					{
						OFFSET 0.010113 0.088937 0.050410
						CHANNELS 3 Zrotation Yrotation Xrotation
						End Site
						{
							OFFSET 0.000000 0.000000 0.000000
						}
					}
				}
				JOINT lclavicle
				{
					OFFSET 0.071702 0.114000 -0.018898
					CHANNELS 3 Zrotation Yrotation Xrotation
					JOINT lshoulder
					{
						OFFSET 0.122921 0.045205 -0.019046
						CHANNELS 3 Zrotation Yrotation Xrotation
						JOINT lelbow
						{
							OFFSET 0.255332 -0.015649 -0.022946
							CHANNELS 3 Zrotation Yrotation Xrotation
							JOINT lwrist
							{
								OFFSET 0.265709 0.012698 -0.007375
								CHANNELS 3 Zrotation Yrotation Xrotation
								End Site
								{
									OFFSET 0.000000 0.000000 0.000000
								}
							}
						}
					}
				}
				JOINT rclavicle
				{
					OFFSET -0.082954 0.112472 -0.023707
					CHANNELS 3 Zrotation Yrotation Xrotation
					JOINT rshoulder
					{
						OFFSET -0.113228 0.046853 -0.008472
						CHANNELS 3 Zrotation Yrotation Xrotation
						JOINT relbow
						{
							OFFSET -0.260127 -0.014369 -0.031269
							CHANNELS 3 Zrotation Yrotation Xrotation
							JOINT rwrist
							{
								OFFSET -0.269108 0.006794 -0.006027
								CHANNELS 3 Zrotation Yrotation Xrotation
								End Site
								{
									OFFSET 0.000000 0.000000 0.000000
								}
							}
						}
					}
				}
			}
		}
	}
}
MOTION
Frames: 17
Frame Time: 0.033333
-0.246620 0.227502 0.964680 121.576276 -20.738511 127.281305 5.505993 2.790826 -18.558729 -5.879775 -10.894736 11.478662 -15.554904 2.424466 14.507797 0.000000 -0.000000 0.000000 -19.253277 -14.721552 -61.668101 1.377309 -17.593691 25.716199 10.175630 -4.283365 0.632815 0.000000 -0.000000 0.000000 16.143967 -10.981497 52.408406 -5.338561 11.940993 -0.881043 3.202004 2.161228 4.040469 -3.355984 -29.917110 1.012519 10.399569 -2.254873 -15.138657 -23.183738 -11.505689 1.604409 -52.991393 -4.521573 19.910530 15.343805 -71.921805 3.290194 11.190968 -14.879648 -18.705856 -6.478465 30.217813 -3.188553 -15.997436 10.552823 -29.927362 3.609386 9.279247 -19.970146 -9.054945 12.148417 24.230330 
-0.243495 0.224966 0.955809 120.536041 -22.633939 131.300003 5.361825 1.773933 -19.835531 -6.101567 -10.650576 10.762086 -15.407844 3.744414 16.532806 0.000000 -0.000000 0.000000 -21.957536 -15.082623 -66.279927 1.209371 -17.350407 28.014897 9.400159 -5.364164 -0.291834 0.000000 -0.000000 0.000000 15.444592 -10.679686 50.512838 -5.443380 12.395505 -0.201155 3.321252 2.090691 4.358446 -2.444233 -29.916216 0.708130 10.629887 -2.206890 -17.516349 -21.728449 -11.247573 1.959846 -54.147817 -5.097573 19.974384 13.786444 -71.296316 6.049135 11.542902 -14.720110 -19.400674 -8.421493 29.841826 -3.031824 -19.117659 9.988232 -32.122964 3.274762 7.451663 -18.751548 -11.384786 12.738139 25.107845 
-0.237746 0.222962 0.947765 120.002865 -23.898213 133.779830 5.507481 1.584218 -20.062392 -6.068672 -10.657112 11.126254 -15.005685 4.654109 15.808842 0.000000 -0.000000 0.000000 -23.241326 -14.937891 -69.705904 0.581861 -16.692646 30.738438 7.553509 -7.464513 -2.611748 0.000000 -0.000000 0.000000 15.071356 -10.969857 50.218057 -5.585775 12.839397 -0.064630 3.522655 1.956801 4.586496 -1.825106 -30.582227 0.194139 10.786309 -1.598269 -19.596136 -21.067714 -11.316382 2.267289 -54.442581 -5.200247 19.675959 11.596246 -71.137446 8.851588 12.298092 -14.276575 -20.047557 -9.980126 29.928366 -3.012354 -21.703112 9.134272 -33.664245 3.312944 6.518443 -18.269085 -15.583625 13.502806 26.171553 
-0.232970 0.222082 0.940426 119.989752 -25.480444 135.573085 5.321052 1.209066 -20.415436 -6.027395 -10.260661 12.145645 -14.513197 5.692891 15.105629 0.000000 -0.000000 0.000000 -24.781786 -15.381254 -72.449669 -0.176725 -15.739584 33.930529 6.704970 -8.908123 -4.338331 0.000000 -0.000000 0.000000 15.101612 -11.579479 49.698815 -5.352357 12.972504 0.367357 3.599671 1.704516 4.868975 -0.866365 -31.032776 -0.780769 10.665438 -1.411239 -21.384622 -20.396289 -11.348249 2.471782 -54.988647 -5.645859 19.467546 9.870647 -71.060533 11.088919 12.452755 -14.132084 -20.505561 -11.043628 29.529966 -2.711095 -24.072822 8.536362 -35.163975 3.127797 6.116549 -18.270364 -18.158466 13.882354 27.318143 
-0.228023 0.222000 0.933923 119.982820 -26.291134 137.017669 5.482962 1.219103 -20.565741 -6.054592 -9.759344 13.200922 -13.858545 6.742390 14.861266 0.000000 -0.000000 0.000000 -26.005010 -15.826682 -74.552176 -0.165341 -15.561364 36.578298 6.228748 -9.818407 -5.571912 0.000000 -0.000000 0.000000 15.219024 -12.060439 49.531060 -5.185254 13.299898 0.591486 3.701397 1.737346 4.805926 -0.488682 -31.966829 -1.055207 10.731019 -0.727678 -22.514416 -20.212315 -11.820318 2.869633 -55.290442 -5.746150 19.189027 9.767794 -71.398322 11.386168 12.076703 -14.070109 -21.445321 -12.014503 29.870097 -2.907978 -25.149080 7.353852 -35.471678 3.072925 6.323272 -16.705954 -16.162171 13.125045 28.804158 
-0.224063 0.221700 0.928754 119.476853 -26.331643 138.526637 5.835473 1.546791 -20.618977 -6.309159 -8.700798 13.945804 -13.552368 7.363423 15.484072 0.000000 -0.000000 0.000000 -26.191979 -16.054539 -76.311984 0.220913 -15.797438 37.669113 5.556976 -10.291226 -6.538788 0.000000 -0.000000 0.000000 15.170673 -12.003133 49.276889 -5.177403 13.821408 1.081739 3.821626 1.812260 4.816013 -0.107139 -32.195799 -1.453245 11.190868 -0.231548 -23.628125 -19.815393 -12.184518 2.555665 -55.814847 -5.755870 19.483837 10.960572 -72.257726 10.339022 11.662978 -13.825167 -21.049504 -12.950949 29.901544 -2.651653 -25.800060 6.686718 -35.651123 3.298209 5.770784 -15.533346 -13.620228 11.627897 31.944376 
-0.221043 0.222400 0.925891 119.214927 -26.155495 139.859686 5.844207 1.293157 -21.219509 -6.271924 -8.524277 15.210115 -13.267174 7.597434 15.825013 0.000000 -0.000000 0.000000 -26.191027 -16.054905 -77.746293 0.142445 -16.055119 38.382668 5.134385 -10.447989 -6.882283 0.000000 -0.000000 0.000000 15.337299 -12.099272 49.135604 -5.276509 14.226386 0.814670 3.866549 1.999538 4.979122 0.040114 -32.580630 -1.131431 11.700828 0.221024 -24.875864 -19.406763 -12.193249 2.556913 -56.376346 -6.210511 19.572509 12.379033 -73.322110 8.657141 11.731569 -13.670491 -22.393257 -13.721336 29.938158 -2.141052 -25.281714 6.370316 -35.291469 3.526479 5.178263 -14.944466 -13.846595 11.658128 32.654132 
-0.218385 0.223379 0.925291 119.021077 -25.977417 140.588498 5.594992 0.741526 -21.618224 -6.443897 -9.012223 16.425515 -13.218304 7.492819 15.902711 0.000000 -0.000000 0.000000 -26.354219 -15.643448 -78.440118 -0.106936 -16.045515 38.741377 5.028486 -10.615418 -7.011422 0.000000 -0.000000 0.000000 15.271604 -12.694601 49.915992 -5.848553 14.270443 -0.215662 3.715601 2.104709 5.336737 -0.060945 -32.782143 -0.849888 12.419709 1.190055 -26.050599 -19.055744 -11.488860 1.565715 -56.217156 -6.146058 20.229746 13.343994 -75.297901 7.608868 13.621144 -13.233044 -23.185305 -15.590061 29.224874 -2.857737 -22.267510 8.208727 -32.962280 3.161385 4.660181 -17.102144 -19.315221 14.149056 32.137734 
-0.216819 0.224828 0.925297 119.130458 -25.690095 140.890318 5.246251 0.085267 -22.119089 -6.508971 -9.511620 17.650519 -14.168770 6.963569 16.034409 0.000000 -0.000000 0.000000 -26.022689 -15.449675 -78.541683 -0.490044 -16.245575 38.645413 4.651218 -10.269356 -7.030007 0.000000 -0.000000 0.000000 15.358105 -11.795432 49.680694 -4.986433 14.455390 0.422379 4.349291 2.410892 4.805913 0.112954 -32.131347 -0.729210 12.457117 0.150695 -27.181037 -19.708447 -12.747967 3.181649 -56.213056 -7.148791 19.946367 18.735546 -77.667916 3.660594 15.440798 -12.916102 -24.415654 -12.080699 30.913528 -0.866395 -24.523137 5.710019 -34.820475 3.224894 4.449123 -14.189683 -24.830168 16.966148 29.654076 
-0.215739 0.225499 0.927033 119.034558 -25.136835 140.739026 4.978127 -0.458978 -21.906776 -6.739821 -9.621871 17.759038 -14.725644 6.203257 16.247443 0.000000 -0.000000 0.000000 -25.878164 -14.724607 -78.110076 -0.689766 -16.479329 38.154319 4.803387 -9.782154 -7.253100 0.000000 -0.000000 0.000000 14.796170 -11.243976 50.027011 -4.594249 14.444520 0.562193 4.798539 2.613766 4.692725 0.299529 -31.546700 -1.168469 12.565920 -0.021775 -27.468001 -19.712074 -12.665847 3.074201 -56.426424 -7.732402 20.429737 29.082496 -80.131891 -6.875462 16.149374 -12.843708 -25.701905 -10.715669 31.031385 -0.332936 -23.303364 6.215903 -34.138027 2.580284 5.018328 -14.368936 -24.544526 17.463772 29.007295 
-0.215551 0.226836 0.930125 119.377740 -24.601859 140.124980 4.664679 -0.876961 -21.762070 -6.918417 -9.853553 17.733087 -15.223606 5.651839 16.450930 0.000000 -0.000000 0.000000 -25.521208 -14.113590 -77.063029 -0.871406 -16.735687 37.213076 4.810806 -9.492489 -7.020774 0.000000 -0.000000 0.000000 14.511737 -10.909851 50.064712 -4.192551 14.208162 0.405195 5.131984 2.786395 4.644065 0.119760 -31.172121 -1.305465 12.820118 -0.221177 -27.039504 -19.805234 -12.626024 3.144389 -56.611944 -7.960781 20.766051 47.052911 -82.253307 -24.535965 16.820969 -12.562117 -26.534797 -9.317497 31.148597 0.286094 -20.557388 6.749607 -32.241314 1.904482 6.736792 -12.983728 -21.111833 16.189659 27.971968 
-0.216108 0.228132 0.933645 119.713019 -24.110321 139.310091 4.054522 -1.058743 -21.647902 -6.912934 -9.883002 17.356652 -15.026230 5.070724 16.793527 0.000000 -0.000000 0.000000 -25.011853 -13.431269 -75.851135 -1.203344 -16.730830 36.175124 4.600927 -9.129348 -6.793624 0.000000 -0.000000 0.000000 13.976372 -10.729127 50.062310 -4.084551 13.761316 -0.243584 5.293662 3.044063 4.579937 -0.211702 -30.763739 -1.198529 13.289691 -0.234942 -26.408682 -19.552808 -12.192334 3.099939 -56.856981 -8.010504 20.892948 74.616990 -83.612255 -52.073107 17.251540 -12.340913 -27.453516 -7.903700 31.093644 1.129983 -16.392064 7.738584 -30.170772 1.327890 8.888291 -12.177983 -17.958899 15.212957 26.531367 
-0.217107 0.229385 0.937716 119.926423 -23.492069 138.254484 3.287868 -0.986180 -21.387597 -6.695011 -9.342637 16.677639 -14.826603 4.561451 16.672803 0.000000 -0.000000 0.000000 -24.228992 -12.597418 -74.595492 -1.460989 -16.199112 35.229557 4.464799 -8.890167 -6.287064 0.000000 -0.000000 0.000000 13.327490 -10.464121 49.727297 -4.118695 13.239441 -0.607644 5.376591 3.357118 4.409871 -0.779731 -30.805717 -1.188157 13.933105 0.065806 -25.878722 -19.407767 -11.996666 3.144781 -56.801504 -7.905597 20.820836 104.233049 -83.004809 -82.176159 17.157037 -12.399287 -27.515284 -6.696520 31.521128 1.728615 -11.107836 8.302585 -27.738301 0.547255 10.784477 -13.214999 -11.037340 12.436160 24.238788 
-0.218033 0.231344 0.942696 120.480016 -22.723151 136.449336 2.733456 -0.802716 -20.766764 -6.445134 -8.776598 15.944218 -14.385074 4.372629 16.108992 0.000000 -0.000000 0.000000 -23.400084 -11.619567 -72.362401 -1.637050 -16.121917 33.824842 4.105536 -8.628173 -5.630584 0.000000 -0.000000 0.000000 12.811558 -10.318118 49.725111 -4.044567 12.744823 -0.977542 5.413307 3.638762 4.142877 -1.061897 -30.434163 -1.555052 14.652252 0.297827 -25.130296 -19.593671 -12.011177 2.771039 -56.761542 -7.323053 21.166747 122.621474 -80.892733 -100.276892 16.747587 -12.498978 -27.617453 -5.249446 31.725788 2.053078 -5.748517 8.859553 -25.494452 0.383205 12.138409 -15.503888 -2.933743 8.973003 19.443821 
-0.218947 0.233243 0.948086 121.261970 -21.732022 134.237116 2.486170 -0.417716 -20.332123 -6.109766 -7.931315 15.547924 -14.259048 3.947758 15.382848 0.000000 -0.000000 0.000000 -22.251767 -10.431164 -69.797246 -1.989872 -15.875647 32.491222 3.922450 -8.430399 -5.214844 0.000000 -0.000000 0.000000 12.496253 -10.013320 49.781872 -3.878392 12.362455 -1.311262 5.553194 3.696555 3.434049 -1.189010 -30.979852 -2.336666 14.812408 0.461339 -23.838335 -20.116095 -11.861631 2.951419 -56.523260 -6.864842 21.077060 134.440270 -78.798547 -111.598970 15.683620 -12.834827 -27.209005 -3.445373 31.851501 2.499683 0.035430 9.127174 -23.422702 0.294204 13.089854 -18.149483 4.500089 6.639162 14.170319 
-0.218587 0.236152 0.955296 122.298504 -20.255473 131.099955 2.667047 0.332553 -19.215096 -5.785036 -7.574951 15.270217 -14.438915 3.317236 14.240498 0.000000 -0.000000 0.000000 -20.308038 -9.217826 -66.161166 -2.399918 -15.984275 30.994243 3.905088 -7.582657 -4.701296 0.000000 -0.000000 0.000000 12.607899 -9.827640 50.703035 -3.639142 11.839034 -1.992669 5.558372 3.858292 2.926430 -1.843252 -30.177810 -2.219009 15.156144 0.550834 -23.545548 -21.113123 -11.664087 2.873937 -55.841075 -6.242463 21.074966 142.269429 -77.088323 -119.079252 15.102902 -13.146225 -26.460485 -0.823521 31.503955 2.841394 5.499747 9.068329 -21.044564 -0.267892 14.347604 -19.339545 9.215586 5.595638 11.708262 
-0.212760 0.242197 0.968739 125.045355 -17.486965 124.852906 4.502927 2.972770 -15.375289 -5.682023 -10.038893 15.530732 -15.582394 0.893457 11.347124 0.000000 -0.000000 0.000000 -14.981880 -8.559970 -58.504942 -2.714403 -14.942439 28.034999 3.549420 -6.479173 -4.478108 0.000000 -0.000000 0.000000 14.934257 -11.270414 54.864683 -3.579165 11.456652 -3.253388 5.433869 3.719588 2.500308 -2.342511 -30.125184 -4.017459 15.459098 0.582146 -22.217036 -23.582884 -11.606826 1.988271 -54.173370 -5.085103 20.812963 150.298638 -76.120194 -126.560288 15.351186 -12.915567 -25.818018 1.824921 31.151148 2.013881 9.664465 7.179410 -18.404368 0.108351 16.641576 -18.611950 9.938377 5.457627 11.060262 
